<?xml version="1.0" encoding="UTF-8"?>
<svg id="Capa_2" data-name="Capa 2" xmlns="http://www.w3.org/2000/svg" viewBox="0 0 33.32 33.32">
  <defs>
    <style>
      .cls-1 {
        fill: #fff;
      }
    </style>
  </defs>
  <g id="Capa_1-2" data-name="Capa 1">
    <path class="cls-1" d="M25.28,0H8.04C3.6,0,0,3.6,0,8.04v17.24c0,4.44,3.6,8.04,8.04,8.04h17.24c4.44,0,8.04-3.6,8.04-8.04V8.04c0-4.44-3.6-8.04-8.04-8.04ZM30.45,24.71c0,3.17-2.57,5.75-5.75,5.75H8.62c-3.17,0-5.75-2.57-5.75-5.75V8.62c0-3.17,2.57-5.75,5.75-5.75h16.09c3.17,0,5.75,2.57,5.75,5.75v16.09Z"/>
    <path class="cls-1" d="M16.68,8.04c-4.76,0-8.62,3.86-8.62,8.62s3.86,8.62,8.62,8.62,8.62-3.86,8.62-8.62-3.86-8.62-8.62-8.62ZM16.68,22.41c-3.17,0-5.75-2.58-5.75-5.75s2.58-5.75,5.75-5.75,5.75,2.58,5.75,5.75-2.58,5.75-5.75,5.75Z"/>
    <circle class="cls-1" cx="25.87" cy="7.47" r="1.72"/>
  </g>
</svg>