<?xml version="1.0" encoding="UTF-8"?>
<svg id="Capa_2" data-name="Capa 2" xmlns="http://www.w3.org/2000/svg" viewBox="0 0 38.16 38.16">
  <defs>
    <style>
      .cls-1 {
        fill: #fff;
      }
    </style>
  </defs>
  <g id="Capa_1-2" data-name="Capa 1">
    <path class="cls-1" d="M18.44.01C8.62.33.52,8.28.02,18.09c-.18,3.54.6,6.88,2.12,9.78L.01,37.42c-.09.43.29.81.72.72l9.54-2.13h0c2.88,1.51,6.19,2.29,9.7,2.12,9.79-.45,17.77-8.5,18.15-18.3C38.57,8.74,29.52-.35,18.44.01ZM19.08,34.21c-2.78,0-5.37-.75-7.61-2.06-.21-.12-.41-.24-.61-.37l-6.1,1.62,1.62-6.1c-1.54-2.37-2.43-5.19-2.43-8.22,0-8.34,6.79-15.13,15.13-15.13s15.13,6.79,15.13,15.13-6.79,15.13-15.13,15.13Z"/>
    <path class="cls-1" d="M28.05,25.74c-.26.4-.54.77-.98,1.21-.97.97-2.32,1.46-3.68,1.32-2.45-.25-5.92-1.6-8.91-4.58-2.99-2.99-4.34-6.46-4.58-8.91-.14-1.37.35-2.71,1.32-3.68.44-.44.81-.72,1.21-.99.73-.49,1.73-.16,2.01.67l1,3.01c.28.82.15,1.35-.2,1.7l-.8.81c-.4.4-.46,1.01-.16,1.48.44.69,1.27,1.8,2.8,3.33,1.53,1.53,2.64,2.36,3.33,2.8.47.3,1.09.24,1.48-.16l.81-.8c.35-.36.87-.48,1.7-.2l3.01,1c.83.28,1.16,1.27.66,2.01Z"/>
  </g>
</svg>